<svg width="63" height="18" viewBox="0 0 63 18" fill="none" xmlns="http://www.w3.org/2000/svg">
<path d="M0 10.7407V10.7028C0 8.54332 1.64028 7.54594 3.98068 7.54594C4.97641 7.54594 5.69431 7.71291 6.39443 7.95112V7.78415C6.39443 6.62202 5.67653 5.97417 4.27629 5.97417C3.50282 5.97417 2.87605 6.08548 2.3404 6.25023C2.17371 6.30589 2.0648 6.3237 1.93589 6.3237C1.29133 6.3237 0.775688 5.82501 0.775688 5.17938C0.775688 4.68069 1.08908 4.25547 1.53137 4.09072C2.41597 3.759 3.37391 3.57422 4.68302 3.57422C6.21217 3.57422 7.31903 3.97941 8.01915 4.68069C8.75705 5.41982 9.08822 6.50848 9.08822 7.83758V12.3414C9.08822 13.0983 8.47923 13.6883 7.72354 13.6883C6.91229 13.6883 6.37887 13.1161 6.37887 12.5262V12.5084C5.69653 13.2653 4.75637 13.764 3.39391 13.764C1.52915 13.7684 0 12.6976 0 10.7407ZM6.43221 10.095V9.59636C5.95213 9.37373 5.32758 9.22679 4.64524 9.22679C3.44726 9.22679 2.70935 9.70767 2.70935 10.5937V10.6316C2.70935 11.3885 3.33613 11.8316 4.2385 11.8316C5.54762 11.8293 6.43221 11.1102 6.43221 10.095Z" fill="#072568"/>
<path d="M20.7862 12.2936C20.7862 13.0684 20.1595 13.6962 19.386 13.6962C18.6125 13.6962 17.9858 13.0684 17.9858 12.2936V12.1645C17.3034 13.0884 16.3633 13.7697 14.9075 13.7697C12.6048 13.7697 10.4111 11.9619 10.4111 8.65585V8.618C10.4111 5.31418 12.5671 3.50419 14.9075 3.50419C16.401 3.50419 17.3212 4.18767 17.9858 4.98023V1.40257C17.9858 0.627816 18.6125 0 19.386 0C20.1595 0 20.7862 0.627816 20.7862 1.40257V12.2936ZM13.2138 8.62023V8.65808C13.2138 10.3011 14.3185 11.3897 15.6276 11.3897C16.9367 11.3897 18.0235 10.3011 18.0235 8.65808V8.62023C18.0235 6.97722 16.9367 5.88856 15.6276 5.88856C14.3185 5.88856 13.2138 6.95941 13.2138 8.62023Z" fill="#072568"/>
<path d="M27.1997 13.8089C24.2325 13.8089 22.041 11.7229 22.041 8.69509V8.65724C22.041 5.83207 24.0502 3.50781 26.9241 3.50781C30.2224 3.50781 31.6782 6.22167 31.6782 8.26987C31.6782 9.08246 31.107 9.61678 30.3691 9.61678H24.8215C25.0971 10.8902 25.9817 11.5559 27.2352 11.5559C28.0087 11.5559 28.6533 11.3154 29.2245 10.8924C29.4267 10.7455 29.6112 10.6698 29.9068 10.6698C30.5336 10.6698 30.9937 11.1507 30.9937 11.7785C30.9937 12.1481 30.827 12.4241 30.6247 12.6089C29.7601 13.3458 28.6377 13.8089 27.1997 13.8089ZM29.0044 7.86468C28.8377 6.60905 28.102 5.76083 26.9218 5.76083C25.7617 5.76083 25.006 6.59124 24.7837 7.86468H29.0044Z" fill="#072568"/>
<path d="M33.2851 12.6761C33.0584 12.5537 32.8828 12.291 32.8828 11.9392C32.8828 11.465 33.2495 11.0798 33.7407 11.0798C33.9163 11.0798 34.0741 11.1333 34.1964 11.2023C35.0899 11.7989 36.0167 12.0973 36.8568 12.0973C37.7659 12.0973 38.2926 11.7121 38.2926 11.0977V11.0643C38.2926 10.3452 37.3125 10.1003 36.2278 9.76633C34.8632 9.38118 33.3407 8.82015 33.3407 7.04802V7.0124C33.3407 5.2603 34.7943 4.18945 36.6301 4.18945C37.6103 4.18945 38.6438 4.46997 39.5351 4.94417C39.8329 5.10224 40.0418 5.38275 40.0418 5.75009C40.0418 6.2421 39.6573 6.60944 39.1661 6.60944C38.9905 6.60944 38.8861 6.57382 38.746 6.5048C37.9926 6.11965 37.2236 5.87476 36.5768 5.87476C35.7544 5.87476 35.281 6.25991 35.281 6.78532V6.82094C35.281 7.50441 36.2789 7.78493 37.3636 8.13668C38.7105 8.55745 40.233 9.17191 40.233 10.8372V10.8728C40.233 12.8186 38.7283 13.7826 36.8035 13.7826C35.63 13.7803 34.352 13.413 33.2851 12.6761Z" fill="#E32120"/>
<path d="M52.185 6.17342H51.8183C51.3271 6.17342 50.9248 5.78827 50.9248 5.29625C50.9248 4.80424 51.3271 4.40128 51.8183 4.40128H52.185V3.71781C52.185 2.70039 52.4473 1.93009 52.9385 1.43808C53.4275 0.948291 54.112 0.701172 55.0211 0.701172C55.4411 0.701172 55.7901 0.736793 56.0879 0.787998C56.4724 0.841429 56.8236 1.19096 56.8236 1.66516C56.8236 2.15717 56.4213 2.56013 55.9301 2.54232C55.8079 2.52451 55.6323 2.5067 55.4923 2.5067C54.6877 2.5067 54.2676 2.94528 54.2676 3.90927V4.41687H55.9123C56.4191 4.41687 56.8058 4.80202 56.8058 5.29403C56.8058 5.78604 56.4035 6.17119 55.9123 6.17119H54.3032V12.6408C54.3032 13.2197 53.8297 13.6916 53.2363 13.6916C52.6584 13.6916 52.1872 13.2174 52.1872 12.6408V6.17342H52.185Z" fill="#E32120"/>
<path d="M58.2944 11.0447V6.17135H57.9432C57.4365 6.17135 57.0342 5.76839 57.0342 5.26079C57.0342 4.7532 57.4365 4.34801 57.9432 4.34801H58.2944V2.76956C58.2944 2.19073 58.7678 1.71875 59.3612 1.71875C59.9391 1.71875 60.4103 2.19295 60.4103 2.76956V4.34801H62.0728C62.5796 4.34801 62.9996 4.75097 62.9996 5.26079C62.9996 5.76839 62.5796 6.17135 62.0728 6.17135H60.4103V10.7108C60.4103 11.5345 60.8304 11.8684 61.5483 11.8684C61.7928 11.8684 62.0039 11.815 62.0728 11.815C62.5462 11.815 62.9663 12.2002 62.9663 12.6922C62.9663 13.0773 62.704 13.3935 62.4062 13.5159C61.9506 13.674 61.5127 13.7608 60.9526 13.7608C59.3968 13.763 58.2944 13.0773 58.2944 11.0447Z" fill="#E32120"/>
<path d="M45.4841 6.01326C45.9531 6.01326 46.3843 6.12012 46.7599 6.31158C47.1711 5.8819 47.6712 5.41438 48.2691 4.94241C47.4978 4.44372 46.5599 4.1543 45.5197 4.1543C43.855 4.1543 42.4458 4.90901 41.5635 6.06669C42.0436 6.29377 42.6948 6.61436 43.3638 6.98837C43.8483 6.39173 44.5795 6.01326 45.4841 6.01326Z" fill="#E32120"/>
<path d="M48.3199 8.99437V9.02999C48.3199 10.6263 47.2353 11.9576 45.5194 11.9576C43.8747 11.9576 42.7011 10.6084 42.7011 8.99437V8.95875C42.7011 8.57138 42.7634 8.19958 42.8834 7.85896C42.3122 7.27122 41.7721 6.7191 41.3831 6.32281C40.8742 7.09089 40.583 8.01258 40.583 8.99437V9.02999C40.583 11.6593 42.6656 13.8165 45.4839 13.8165C48.3377 13.8165 50.438 11.6259 50.438 8.9966V8.96098C50.438 7.69421 49.9624 6.54099 49.1534 5.68164C48.7422 6.17588 48.3043 6.728 47.8576 7.3291C48.1532 7.80553 48.3199 8.37991 48.3199 8.99437Z" fill="#E32120"/>
<path d="M51.7309 2.87305C50.3307 3.48528 49.1861 4.21773 48.2681 4.9435C47.6702 5.41548 47.1702 5.883 46.759 6.31268C45.7232 7.39688 45.2587 8.22952 45.2587 8.22952C44.7142 7.79317 44.0296 7.36572 43.3606 6.9917C42.6938 6.61768 42.0404 6.29709 41.5603 6.07001C41.0936 5.84961 40.7891 5.72048 40.7891 5.72048C40.7891 5.72048 41.018 5.95424 41.3781 6.32381C41.767 6.72009 42.3071 7.27444 42.8783 7.85995C43.9407 8.95084 45.112 10.1575 45.6143 10.694C46.3367 9.45844 47.1079 8.32525 47.8503 7.33009C48.2992 6.72899 48.7371 6.17687 49.146 5.68263C50.6152 3.91718 51.7309 2.87305 51.7309 2.87305Z" fill="#072568"/>
</svg>
